<mxfile host="app.diagrams.net" modified="2023-05-11T22:25:57.300Z" agent="Mozilla/5.0 (Windows NT 10.0; Win64; x64) AppleWebKit/537.36 (KHTML, like Gecko) Chrome/113.0.0.0 Safari/537.36" etag="XUui--zd7ZcpQ2Xc_bVd" version="21.2.9" type="github" pages="3">
  <diagram name="Halaman-1" id="IYZpX6wWC4cLaYUN2112">
    <mxGraphModel dx="1195" dy="1832" grid="0" gridSize="10" guides="1" tooltips="1" connect="1" arrows="1" fold="1" page="1" pageScale="1" pageWidth="827" pageHeight="1169" math="0" shadow="0">
      <root>
        <mxCell id="0" />
        <mxCell id="1" parent="0" />
        <mxCell id="gXH5_1yfhIuHHAw4d6mE-4" style="edgeStyle=orthogonalEdgeStyle;rounded=0;orthogonalLoop=1;jettySize=auto;html=1;entryX=0.5;entryY=0;entryDx=0;entryDy=0;" edge="1" parent="1" source="gXH5_1yfhIuHHAw4d6mE-1" target="gXH5_1yfhIuHHAw4d6mE-2">
          <mxGeometry relative="1" as="geometry" />
        </mxCell>
        <mxCell id="gXH5_1yfhIuHHAw4d6mE-1" value="&lt;p class=&quot;MsoNormal&quot;&gt;&lt;u&gt;&lt;b&gt;https://sistab.tabalongkab.go.id/login&lt;/b&gt;&lt;/u&gt;&lt;/p&gt;" style="rounded=1;whiteSpace=wrap;html=1;" vertex="1" parent="1">
          <mxGeometry x="259.5" y="249" width="305.5" height="60" as="geometry" />
        </mxCell>
        <mxCell id="gXH5_1yfhIuHHAw4d6mE-25" style="edgeStyle=orthogonalEdgeStyle;rounded=0;orthogonalLoop=1;jettySize=auto;html=1;" edge="1" parent="1" source="gXH5_1yfhIuHHAw4d6mE-2" target="gXH5_1yfhIuHHAw4d6mE-15">
          <mxGeometry relative="1" as="geometry" />
        </mxCell>
        <mxCell id="gXH5_1yfhIuHHAw4d6mE-2" value="Halaman Login,&lt;br&gt;masukan username dan password" style="rounded=0;whiteSpace=wrap;html=1;" vertex="1" parent="1">
          <mxGeometry x="260.75" y="348" width="303" height="59" as="geometry" />
        </mxCell>
        <mxCell id="gXH5_1yfhIuHHAw4d6mE-26" style="edgeStyle=orthogonalEdgeStyle;rounded=0;orthogonalLoop=1;jettySize=auto;html=1;" edge="1" parent="1" source="gXH5_1yfhIuHHAw4d6mE-15" target="gXH5_1yfhIuHHAw4d6mE-17">
          <mxGeometry relative="1" as="geometry" />
        </mxCell>
        <mxCell id="gXH5_1yfhIuHHAw4d6mE-37" value="YES" style="edgeLabel;html=1;align=center;verticalAlign=middle;resizable=0;points=[];" vertex="1" connectable="0" parent="gXH5_1yfhIuHHAw4d6mE-26">
          <mxGeometry x="-0.8079" y="-1" relative="1" as="geometry">
            <mxPoint x="1" y="10" as="offset" />
          </mxGeometry>
        </mxCell>
        <mxCell id="gXH5_1yfhIuHHAw4d6mE-38" style="edgeStyle=orthogonalEdgeStyle;rounded=0;orthogonalLoop=1;jettySize=auto;html=1;" edge="1" parent="1" source="gXH5_1yfhIuHHAw4d6mE-15" target="gXH5_1yfhIuHHAw4d6mE-1">
          <mxGeometry relative="1" as="geometry">
            <Array as="points">
              <mxPoint x="600" y="470.5" />
              <mxPoint x="600" y="279" />
            </Array>
          </mxGeometry>
        </mxCell>
        <mxCell id="gXH5_1yfhIuHHAw4d6mE-40" value="NO" style="edgeLabel;html=1;align=center;verticalAlign=middle;resizable=0;points=[];" vertex="1" connectable="0" parent="gXH5_1yfhIuHHAw4d6mE-38">
          <mxGeometry x="-0.8234" y="1" relative="1" as="geometry">
            <mxPoint x="-13" as="offset" />
          </mxGeometry>
        </mxCell>
        <mxCell id="gXH5_1yfhIuHHAw4d6mE-15" value="" style="rhombus;whiteSpace=wrap;html=1;" vertex="1" parent="1">
          <mxGeometry x="387.75" y="447" width="49" height="47" as="geometry" />
        </mxCell>
        <mxCell id="gXH5_1yfhIuHHAw4d6mE-35" style="edgeStyle=orthogonalEdgeStyle;rounded=0;orthogonalLoop=1;jettySize=auto;html=1;" edge="1" parent="1" source="gXH5_1yfhIuHHAw4d6mE-17" target="gXH5_1yfhIuHHAw4d6mE-30">
          <mxGeometry relative="1" as="geometry" />
        </mxCell>
        <mxCell id="gXH5_1yfhIuHHAw4d6mE-36" value="YES" style="edgeLabel;html=1;align=center;verticalAlign=middle;resizable=0;points=[];" vertex="1" connectable="0" parent="gXH5_1yfhIuHHAw4d6mE-35">
          <mxGeometry x="-0.3033" relative="1" as="geometry">
            <mxPoint y="-9" as="offset" />
          </mxGeometry>
        </mxCell>
        <mxCell id="gXH5_1yfhIuHHAw4d6mE-39" style="edgeStyle=orthogonalEdgeStyle;rounded=0;orthogonalLoop=1;jettySize=auto;html=1;" edge="1" parent="1" source="gXH5_1yfhIuHHAw4d6mE-17" target="gXH5_1yfhIuHHAw4d6mE-1">
          <mxGeometry relative="1" as="geometry">
            <Array as="points">
              <mxPoint x="600" y="576.5" />
              <mxPoint x="600" y="279" />
            </Array>
          </mxGeometry>
        </mxCell>
        <mxCell id="gXH5_1yfhIuHHAw4d6mE-42" value="NO" style="edgeLabel;html=1;align=center;verticalAlign=middle;resizable=0;points=[];" vertex="1" connectable="0" parent="gXH5_1yfhIuHHAw4d6mE-39">
          <mxGeometry x="-0.8474" y="-1" relative="1" as="geometry">
            <mxPoint x="-14" y="-2" as="offset" />
          </mxGeometry>
        </mxCell>
        <mxCell id="gXH5_1yfhIuHHAw4d6mE-17" value="" style="rhombus;whiteSpace=wrap;html=1;" vertex="1" parent="1">
          <mxGeometry x="387.75" y="553" width="49" height="47" as="geometry" />
        </mxCell>
        <mxCell id="gXH5_1yfhIuHHAw4d6mE-30" value="Halaman Utama Dashboard" style="rounded=1;whiteSpace=wrap;html=1;" vertex="1" parent="1">
          <mxGeometry x="258.5" y="668" width="307.5" height="60" as="geometry" />
        </mxCell>
        <mxCell id="gXH5_1yfhIuHHAw4d6mE-33" value="akun terdaftar?" style="text;html=1;strokeColor=none;fillColor=none;align=center;verticalAlign=middle;whiteSpace=wrap;rounded=0;" vertex="1" parent="1">
          <mxGeometry x="267" y="455.5" width="142" height="30" as="geometry" />
        </mxCell>
        <mxCell id="gXH5_1yfhIuHHAw4d6mE-34" value="username / password ?" style="text;html=1;strokeColor=none;fillColor=none;align=center;verticalAlign=middle;whiteSpace=wrap;rounded=0;" vertex="1" parent="1">
          <mxGeometry x="209" y="561.5" width="219" height="30" as="geometry" />
        </mxCell>
        <mxCell id="gXH5_1yfhIuHHAw4d6mE-43" value="&lt;h1&gt;ALUR INGIN LOGIN&lt;/h1&gt;&lt;p&gt;Lorem ipsum dolor sit amet, consectetur adipisicing elit, sed do eiusmod tempor incididunt ut labore et dolore magna aliqua.&lt;/p&gt;" style="text;html=1;strokeColor=none;fillColor=none;spacing=5;spacingTop=-20;whiteSpace=wrap;overflow=hidden;rounded=0;" vertex="1" parent="1">
          <mxGeometry x="260.75" y="16" width="345.25" height="120" as="geometry" />
        </mxCell>
        <mxCell id="gXH5_1yfhIuHHAw4d6mE-44" value="&lt;h1&gt;ALUR REKAM TAMU MASUK&lt;/h1&gt;&lt;p&gt;Lorem ipsum dolor sit amet, consectetur adipisicing elit, sed do eiusmod tempor incididunt ut labore et dolore magna aliqua.&lt;/p&gt;" style="text;html=1;strokeColor=none;fillColor=none;spacing=5;spacingTop=-20;whiteSpace=wrap;overflow=hidden;rounded=0;" vertex="1" parent="1">
          <mxGeometry x="1060" y="16" width="362" height="120" as="geometry" />
        </mxCell>
        <mxCell id="gXH5_1yfhIuHHAw4d6mE-55" style="edgeStyle=orthogonalEdgeStyle;rounded=0;orthogonalLoop=1;jettySize=auto;html=1;" edge="1" parent="1" source="gXH5_1yfhIuHHAw4d6mE-45" target="gXH5_1yfhIuHHAw4d6mE-46">
          <mxGeometry relative="1" as="geometry" />
        </mxCell>
        <mxCell id="gXH5_1yfhIuHHAw4d6mE-45" value="Halama Utama Dashboard Resepsionis" style="rounded=1;whiteSpace=wrap;html=1;" vertex="1" parent="1">
          <mxGeometry x="1060" y="157" width="326" height="60" as="geometry" />
        </mxCell>
        <mxCell id="gXH5_1yfhIuHHAw4d6mE-56" style="edgeStyle=orthogonalEdgeStyle;rounded=0;orthogonalLoop=1;jettySize=auto;html=1;" edge="1" parent="1" source="gXH5_1yfhIuHHAw4d6mE-46" target="gXH5_1yfhIuHHAw4d6mE-47">
          <mxGeometry relative="1" as="geometry" />
        </mxCell>
        <mxCell id="gXH5_1yfhIuHHAw4d6mE-46" value="Klik menu buku tamu &amp;gt; rekam tamu masuk" style="rounded=0;whiteSpace=wrap;html=1;" vertex="1" parent="1">
          <mxGeometry x="1060" y="251" width="329" height="60" as="geometry" />
        </mxCell>
        <mxCell id="gXH5_1yfhIuHHAw4d6mE-57" style="edgeStyle=orthogonalEdgeStyle;rounded=0;orthogonalLoop=1;jettySize=auto;html=1;" edge="1" parent="1" source="gXH5_1yfhIuHHAw4d6mE-47" target="gXH5_1yfhIuHHAw4d6mE-48">
          <mxGeometry relative="1" as="geometry" />
        </mxCell>
        <mxCell id="gXH5_1yfhIuHHAw4d6mE-47" value="Halaman Rekam Tamu Masuk, &lt;br&gt;isi form rekam tamu masuk" style="rounded=0;whiteSpace=wrap;html=1;" vertex="1" parent="1">
          <mxGeometry x="1060" y="345" width="328" height="60" as="geometry" />
        </mxCell>
        <mxCell id="gXH5_1yfhIuHHAw4d6mE-58" style="edgeStyle=orthogonalEdgeStyle;rounded=0;orthogonalLoop=1;jettySize=auto;html=1;" edge="1" parent="1" source="gXH5_1yfhIuHHAw4d6mE-48" target="gXH5_1yfhIuHHAw4d6mE-49">
          <mxGeometry relative="1" as="geometry" />
        </mxCell>
        <mxCell id="gXH5_1yfhIuHHAw4d6mE-48" value="Input:&lt;br&gt;data tamu masuk" style="shape=parallelogram;perimeter=parallelogramPerimeter;whiteSpace=wrap;html=1;fixedSize=1;" vertex="1" parent="1">
          <mxGeometry x="1114" y="468" width="221" height="70" as="geometry" />
        </mxCell>
        <mxCell id="gXH5_1yfhIuHHAw4d6mE-59" style="edgeStyle=orthogonalEdgeStyle;rounded=0;orthogonalLoop=1;jettySize=auto;html=1;" edge="1" parent="1" source="gXH5_1yfhIuHHAw4d6mE-49" target="gXH5_1yfhIuHHAw4d6mE-52">
          <mxGeometry relative="1" as="geometry" />
        </mxCell>
        <mxCell id="gXH5_1yfhIuHHAw4d6mE-49" value="create data to database" style="shape=cylinder3;whiteSpace=wrap;html=1;boundedLbl=1;backgroundOutline=1;size=15;" vertex="1" parent="1">
          <mxGeometry x="1163.5" y="605" width="122" height="109" as="geometry" />
        </mxCell>
        <mxCell id="gXH5_1yfhIuHHAw4d6mE-60" style="edgeStyle=orthogonalEdgeStyle;rounded=0;orthogonalLoop=1;jettySize=auto;html=1;" edge="1" parent="1" source="gXH5_1yfhIuHHAw4d6mE-52" target="gXH5_1yfhIuHHAw4d6mE-53">
          <mxGeometry relative="1" as="geometry" />
        </mxCell>
        <mxCell id="gXH5_1yfhIuHHAw4d6mE-52" value="Output:&lt;br&gt;successful message and&lt;br&gt;get all data tamu masuk" style="shape=parallelogram;perimeter=parallelogramPerimeter;whiteSpace=wrap;html=1;fixedSize=1;" vertex="1" parent="1">
          <mxGeometry x="1109" y="782" width="230" height="76" as="geometry" />
        </mxCell>
        <mxCell id="gXH5_1yfhIuHHAw4d6mE-61" style="edgeStyle=orthogonalEdgeStyle;rounded=0;orthogonalLoop=1;jettySize=auto;html=1;" edge="1" parent="1" source="gXH5_1yfhIuHHAw4d6mE-53" target="gXH5_1yfhIuHHAw4d6mE-54">
          <mxGeometry relative="1" as="geometry" />
        </mxCell>
        <mxCell id="gXH5_1yfhIuHHAw4d6mE-53" value="menampilkan semua data tamu masuk" style="rounded=0;whiteSpace=wrap;html=1;" vertex="1" parent="1">
          <mxGeometry x="1063.5" y="912" width="319" height="62" as="geometry" />
        </mxCell>
        <mxCell id="gXH5_1yfhIuHHAw4d6mE-54" value="Halaman Data Berkunjung" style="rounded=1;whiteSpace=wrap;html=1;" vertex="1" parent="1">
          <mxGeometry x="1054" y="1024" width="338" height="69" as="geometry" />
        </mxCell>
        <mxCell id="gXH5_1yfhIuHHAw4d6mE-62" value="&lt;h1&gt;SOP&lt;/h1&gt;&lt;p&gt;Lorem ipsum dolor sit amet, consectetur adipisicing elit, sed do eiusmod tempor incididunt ut labore et dolore magna aliqua.&lt;/p&gt;" style="text;html=1;strokeColor=none;fillColor=none;spacing=5;spacingTop=-20;whiteSpace=wrap;overflow=hidden;rounded=0;" vertex="1" parent="1">
          <mxGeometry x="1168" y="-1145" width="190" height="120" as="geometry" />
        </mxCell>
      </root>
    </mxGraphModel>
  </diagram>
  <diagram id="kkMFo5h-14j4Vdy-8KQC" name="Halaman-2">
    <mxGraphModel dx="1687" dy="2105" grid="0" gridSize="10" guides="1" tooltips="1" connect="1" arrows="1" fold="1" page="1" pageScale="1" pageWidth="827" pageHeight="1169" math="0" shadow="0">
      <root>
        <mxCell id="0" />
        <mxCell id="1" parent="0" />
        <mxCell id="PWN6iVL4zW_n2cdX7ztj-4" value="Alur Kerja Sistem dalam pelayanan tamu berkunjung" style="swimlane;childLayout=stackLayout;resizeParent=1;resizeParentMax=0;startSize=20;html=1;fillColor=#ffffff;strokeColor=#82b366;" vertex="1" parent="1">
          <mxGeometry x="176" y="-76" width="956" height="1032" as="geometry" />
        </mxCell>
        <mxCell id="PWN6iVL4zW_n2cdX7ztj-5" value="Tamu" style="swimlane;startSize=20;html=1;fillColor=#ffffff;" vertex="1" parent="PWN6iVL4zW_n2cdX7ztj-4">
          <mxGeometry y="20" width="228" height="1012" as="geometry" />
        </mxCell>
        <mxCell id="PWN6iVL4zW_n2cdX7ztj-6" value="Resepsionis" style="swimlane;startSize=20;html=1;" vertex="1" parent="PWN6iVL4zW_n2cdX7ztj-4">
          <mxGeometry x="228" y="20" width="259" height="1012" as="geometry" />
        </mxCell>
        <mxCell id="PWN6iVL4zW_n2cdX7ztj-10" value="Sistem" style="swimlane;startSize=20;html=1;" vertex="1" parent="PWN6iVL4zW_n2cdX7ztj-4">
          <mxGeometry x="487" y="20" width="217" height="1012" as="geometry" />
        </mxCell>
        <mxCell id="ZGdY6tQhEwYq3cLB6Bt3-7" value="Resepsionis" style="swimlane;startSize=20;html=1;" vertex="1" parent="PWN6iVL4zW_n2cdX7ztj-4">
          <mxGeometry x="704" y="20" width="252" height="1012" as="geometry" />
        </mxCell>
        <mxCell id="ZGdY6tQhEwYq3cLB6Bt3-55" value="Mulai" style="rounded=1;whiteSpace=wrap;html=1;arcSize=50;fillColor=#f8cecc;strokeColor=#b85450;" vertex="1" parent="ZGdY6tQhEwYq3cLB6Bt3-7">
          <mxGeometry x="-639.25" y="86" width="110.5" height="42" as="geometry" />
        </mxCell>
        <mxCell id="ZGdY6tQhEwYq3cLB6Bt3-57" value="Tamu datang ke BAPENDA" style="rounded=0;whiteSpace=wrap;html=1;fillColor=#dae8fc;strokeColor=#6c8ebf;" vertex="1" parent="ZGdY6tQhEwYq3cLB6Bt3-7">
          <mxGeometry x="-644" y="212" width="120" height="71" as="geometry" />
        </mxCell>
        <mxCell id="ZGdY6tQhEwYq3cLB6Bt3-54" style="edgeStyle=orthogonalEdgeStyle;rounded=0;orthogonalLoop=1;jettySize=auto;html=1;" edge="1" parent="ZGdY6tQhEwYq3cLB6Bt3-7" source="ZGdY6tQhEwYq3cLB6Bt3-55" target="ZGdY6tQhEwYq3cLB6Bt3-57">
          <mxGeometry relative="1" as="geometry" />
        </mxCell>
        <mxCell id="ZGdY6tQhEwYq3cLB6Bt3-58" value="Temui SATPAM atau Resepsionis" style="rounded=0;whiteSpace=wrap;html=1;fillColor=#dae8fc;strokeColor=#6c8ebf;" vertex="1" parent="ZGdY6tQhEwYq3cLB6Bt3-7">
          <mxGeometry x="-644.0000000000005" y="367" width="120" height="60" as="geometry" />
        </mxCell>
        <mxCell id="ZGdY6tQhEwYq3cLB6Bt3-56" style="edgeStyle=orthogonalEdgeStyle;rounded=0;orthogonalLoop=1;jettySize=auto;html=1;" edge="1" parent="ZGdY6tQhEwYq3cLB6Bt3-7" source="ZGdY6tQhEwYq3cLB6Bt3-57" target="ZGdY6tQhEwYq3cLB6Bt3-58">
          <mxGeometry relative="1" as="geometry" />
        </mxCell>
        <mxCell id="ZGdY6tQhEwYq3cLB6Bt3-59" value="dipersilahkan pulang" style="rounded=0;whiteSpace=wrap;html=1;fillColor=#dae8fc;strokeColor=#6c8ebf;" vertex="1" parent="ZGdY6tQhEwYq3cLB6Bt3-7">
          <mxGeometry x="-644" y="846" width="120" height="60" as="geometry" />
        </mxCell>
        <mxCell id="ZGdY6tQhEwYq3cLB6Bt3-60" style="edgeStyle=orthogonalEdgeStyle;rounded=0;orthogonalLoop=1;jettySize=auto;html=1;" edge="1" parent="ZGdY6tQhEwYq3cLB6Bt3-7" source="ZGdY6tQhEwYq3cLB6Bt3-58" target="ZGdY6tQhEwYq3cLB6Bt3-63">
          <mxGeometry relative="1" as="geometry" />
        </mxCell>
        <mxCell id="ZGdY6tQhEwYq3cLB6Bt3-63" value="ada janji?" style="rhombus;whiteSpace=wrap;html=1;fillColor=#ffe6cc;strokeColor=#d79b00;" vertex="1" parent="ZGdY6tQhEwYq3cLB6Bt3-7">
          <mxGeometry x="-387.38" y="350.63" width="94.75" height="92.75" as="geometry" />
        </mxCell>
        <mxCell id="ZGdY6tQhEwYq3cLB6Bt3-64" value="verifikasi kode tamu" style="rounded=0;whiteSpace=wrap;html=1;fillColor=#dae8fc;strokeColor=#6c8ebf;" vertex="1" parent="ZGdY6tQhEwYq3cLB6Bt3-7">
          <mxGeometry x="-400.00000000000045" y="215" width="120" height="60" as="geometry" />
        </mxCell>
        <mxCell id="ZGdY6tQhEwYq3cLB6Bt3-65" style="edgeStyle=orthogonalEdgeStyle;rounded=0;orthogonalLoop=1;jettySize=auto;html=1;" edge="1" parent="ZGdY6tQhEwYq3cLB6Bt3-7" source="ZGdY6tQhEwYq3cLB6Bt3-63" target="ZGdY6tQhEwYq3cLB6Bt3-64">
          <mxGeometry relative="1" as="geometry" />
        </mxCell>
        <mxCell id="ZGdY6tQhEwYq3cLB6Bt3-66" value="&lt;font style=&quot;font-size: 14px;&quot;&gt;✅&lt;/font&gt;" style="edgeLabel;html=1;align=center;verticalAlign=middle;resizable=0;points=[];" vertex="1" connectable="0" parent="ZGdY6tQhEwYq3cLB6Bt3-65">
          <mxGeometry x="-0.6388" y="1" relative="1" as="geometry">
            <mxPoint x="1" y="-7" as="offset" />
          </mxGeometry>
        </mxCell>
        <mxCell id="ZGdY6tQhEwYq3cLB6Bt3-67" value="Input data&lt;br&gt;tamu masuk" style="shape=parallelogram;perimeter=parallelogramPerimeter;whiteSpace=wrap;html=1;fixedSize=1;fillColor=#d5e8d4;strokeColor=#82b366;" vertex="1" parent="ZGdY6tQhEwYq3cLB6Bt3-7">
          <mxGeometry x="-401.82" y="550" width="123.63" height="77" as="geometry" />
        </mxCell>
        <mxCell id="ZGdY6tQhEwYq3cLB6Bt3-61" style="edgeStyle=orthogonalEdgeStyle;rounded=0;orthogonalLoop=1;jettySize=auto;html=1;" edge="1" parent="ZGdY6tQhEwYq3cLB6Bt3-7" source="ZGdY6tQhEwYq3cLB6Bt3-63" target="ZGdY6tQhEwYq3cLB6Bt3-67">
          <mxGeometry relative="1" as="geometry" />
        </mxCell>
        <mxCell id="ZGdY6tQhEwYq3cLB6Bt3-62" value="&lt;font style=&quot;font-size: 14px;&quot;&gt;❌&lt;/font&gt;" style="edgeLabel;html=1;align=center;verticalAlign=middle;resizable=0;points=[];" vertex="1" connectable="0" parent="ZGdY6tQhEwYq3cLB6Bt3-61">
          <mxGeometry x="-0.6851" relative="1" as="geometry">
            <mxPoint as="offset" />
          </mxGeometry>
        </mxCell>
        <mxCell id="ZGdY6tQhEwYq3cLB6Bt3-68" value="kode sesuai?" style="rhombus;whiteSpace=wrap;html=1;fillColor=#ffe6cc;strokeColor=#d79b00;" vertex="1" parent="ZGdY6tQhEwYq3cLB6Bt3-7">
          <mxGeometry x="-162.25" y="193" width="111" height="104" as="geometry" />
        </mxCell>
        <mxCell id="ZGdY6tQhEwYq3cLB6Bt3-69" value="tambah data" style="shape=cylinder3;whiteSpace=wrap;html=1;boundedLbl=1;backgroundOutline=1;size=15;fillColor=#e1d5e7;strokeColor=#9673a6;" vertex="1" parent="ZGdY6tQhEwYq3cLB6Bt3-7">
          <mxGeometry x="-145" y="687" width="76.5" height="107" as="geometry" />
        </mxCell>
        <mxCell id="ZGdY6tQhEwYq3cLB6Bt3-70" style="edgeStyle=orthogonalEdgeStyle;rounded=0;orthogonalLoop=1;jettySize=auto;html=1;" edge="1" parent="ZGdY6tQhEwYq3cLB6Bt3-7" source="ZGdY6tQhEwYq3cLB6Bt3-64" target="ZGdY6tQhEwYq3cLB6Bt3-68">
          <mxGeometry relative="1" as="geometry" />
        </mxCell>
        <mxCell id="ZGdY6tQhEwYq3cLB6Bt3-71" style="edgeStyle=orthogonalEdgeStyle;rounded=0;orthogonalLoop=1;jettySize=auto;html=1;" edge="1" parent="ZGdY6tQhEwYq3cLB6Bt3-7" source="ZGdY6tQhEwYq3cLB6Bt3-68" target="ZGdY6tQhEwYq3cLB6Bt3-80">
          <mxGeometry relative="1" as="geometry" />
        </mxCell>
        <mxCell id="ZGdY6tQhEwYq3cLB6Bt3-72" value="&lt;font style=&quot;font-size: 14px;&quot;&gt;✅&lt;/font&gt;" style="edgeLabel;html=1;align=center;verticalAlign=middle;resizable=0;points=[];" vertex="1" connectable="0" parent="ZGdY6tQhEwYq3cLB6Bt3-71">
          <mxGeometry x="-0.6152" relative="1" as="geometry">
            <mxPoint as="offset" />
          </mxGeometry>
        </mxCell>
        <mxCell id="ZGdY6tQhEwYq3cLB6Bt3-73" style="edgeStyle=orthogonalEdgeStyle;rounded=0;orthogonalLoop=1;jettySize=auto;html=1;" edge="1" parent="ZGdY6tQhEwYq3cLB6Bt3-7" source="ZGdY6tQhEwYq3cLB6Bt3-68" target="ZGdY6tQhEwYq3cLB6Bt3-67">
          <mxGeometry relative="1" as="geometry">
            <Array as="points">
              <mxPoint x="-107" y="588" />
            </Array>
          </mxGeometry>
        </mxCell>
        <mxCell id="ZGdY6tQhEwYq3cLB6Bt3-74" value="&lt;font style=&quot;font-size: 14px;&quot;&gt;❌&lt;/font&gt;" style="edgeLabel;html=1;align=center;verticalAlign=middle;resizable=0;points=[];" vertex="1" connectable="0" parent="ZGdY6tQhEwYq3cLB6Bt3-73">
          <mxGeometry x="-0.9249" relative="1" as="geometry">
            <mxPoint as="offset" />
          </mxGeometry>
        </mxCell>
        <mxCell id="ZGdY6tQhEwYq3cLB6Bt3-75" style="edgeStyle=orthogonalEdgeStyle;rounded=0;orthogonalLoop=1;jettySize=auto;html=1;" edge="1" parent="ZGdY6tQhEwYq3cLB6Bt3-7" source="ZGdY6tQhEwYq3cLB6Bt3-67" target="ZGdY6tQhEwYq3cLB6Bt3-69">
          <mxGeometry relative="1" as="geometry">
            <Array as="points">
              <mxPoint x="-340" y="741" />
            </Array>
          </mxGeometry>
        </mxCell>
        <mxCell id="ZGdY6tQhEwYq3cLB6Bt3-76" style="edgeStyle=orthogonalEdgeStyle;rounded=0;orthogonalLoop=1;jettySize=auto;html=1;" edge="1" parent="ZGdY6tQhEwYq3cLB6Bt3-7" source="ZGdY6tQhEwYq3cLB6Bt3-69" target="ZGdY6tQhEwYq3cLB6Bt3-83">
          <mxGeometry relative="1" as="geometry" />
        </mxCell>
        <mxCell id="ZGdY6tQhEwYq3cLB6Bt3-77" style="edgeStyle=orthogonalEdgeStyle;rounded=0;orthogonalLoop=1;jettySize=auto;html=1;" edge="1" parent="ZGdY6tQhEwYq3cLB6Bt3-7" source="ZGdY6tQhEwYq3cLB6Bt3-83" target="ZGdY6tQhEwYq3cLB6Bt3-59">
          <mxGeometry relative="1" as="geometry">
            <Array as="points">
              <mxPoint x="132" y="874" />
            </Array>
          </mxGeometry>
        </mxCell>
        <mxCell id="ZGdY6tQhEwYq3cLB6Bt3-78" value="&lt;font style=&quot;font-size: 14px;&quot;&gt;❌&lt;/font&gt;" style="edgeLabel;html=1;align=center;verticalAlign=middle;resizable=0;points=[];" vertex="1" connectable="0" parent="ZGdY6tQhEwYq3cLB6Bt3-77">
          <mxGeometry x="-0.9506" y="1" relative="1" as="geometry">
            <mxPoint x="-1" y="-1" as="offset" />
          </mxGeometry>
        </mxCell>
        <mxCell id="ZGdY6tQhEwYq3cLB6Bt3-80" value="dipersilahkan masuk" style="rounded=0;whiteSpace=wrap;html=1;fillColor=#dae8fc;strokeColor=#6c8ebf;" vertex="1" parent="ZGdY6tQhEwYq3cLB6Bt3-7">
          <mxGeometry x="72" y="215" width="120" height="60" as="geometry" />
        </mxCell>
        <mxCell id="ZGdY6tQhEwYq3cLB6Bt3-81" style="edgeStyle=orthogonalEdgeStyle;rounded=0;orthogonalLoop=1;jettySize=auto;html=1;" edge="1" parent="ZGdY6tQhEwYq3cLB6Bt3-7" source="ZGdY6tQhEwYq3cLB6Bt3-83" target="ZGdY6tQhEwYq3cLB6Bt3-80">
          <mxGeometry relative="1" as="geometry" />
        </mxCell>
        <mxCell id="ZGdY6tQhEwYq3cLB6Bt3-82" value="&lt;font style=&quot;font-size: 14px;&quot;&gt;✅&lt;/font&gt;" style="edgeLabel;html=1;align=center;verticalAlign=middle;resizable=0;points=[];" vertex="1" connectable="0" parent="ZGdY6tQhEwYq3cLB6Bt3-81">
          <mxGeometry x="-0.9009" y="1" relative="1" as="geometry">
            <mxPoint as="offset" />
          </mxGeometry>
        </mxCell>
        <mxCell id="ZGdY6tQhEwYq3cLB6Bt3-83" value="diterima?" style="rhombus;whiteSpace=wrap;html=1;fillColor=#ffe6cc;strokeColor=#d79b00;" vertex="1" parent="ZGdY6tQhEwYq3cLB6Bt3-7">
          <mxGeometry x="92" y="700.5" width="80" height="80" as="geometry" />
        </mxCell>
        <mxCell id="ZGdY6tQhEwYq3cLB6Bt3-84" value="Selesai" style="rounded=1;whiteSpace=wrap;html=1;arcSize=50;fillColor=#f8cecc;strokeColor=#b85450;" vertex="1" parent="ZGdY6tQhEwYq3cLB6Bt3-7">
          <mxGeometry x="76.75" y="84" width="110.5" height="42" as="geometry" />
        </mxCell>
        <mxCell id="ZGdY6tQhEwYq3cLB6Bt3-79" style="edgeStyle=orthogonalEdgeStyle;rounded=0;orthogonalLoop=1;jettySize=auto;html=1;" edge="1" parent="ZGdY6tQhEwYq3cLB6Bt3-7" source="ZGdY6tQhEwYq3cLB6Bt3-80" target="ZGdY6tQhEwYq3cLB6Bt3-84">
          <mxGeometry relative="1" as="geometry" />
        </mxCell>
      </root>
    </mxGraphModel>
  </diagram>
  <diagram id="k2GDAWNqFtfrsUoTKiI0" name="Halaman-3">
    <mxGraphModel dx="-144" dy="-790" grid="0" gridSize="10" guides="1" tooltips="1" connect="1" arrows="1" fold="1" page="1" pageScale="1" pageWidth="827" pageHeight="1169" math="0" shadow="0">
      <root>
        <mxCell id="0" />
        <mxCell id="1" parent="0" />
        <mxCell id="JmU3fsiDKjOcnX10Suzt-1" value="Pool" style="swimlane;childLayout=stackLayout;resizeParent=1;resizeParentMax=0;startSize=20;html=1;" vertex="1" parent="1">
          <mxGeometry x="1108.0000000000005" y="1295" width="461" height="626" as="geometry" />
        </mxCell>
        <mxCell id="JmU3fsiDKjOcnX10Suzt-2" value="Tamu" style="swimlane;startSize=20;html=1;" vertex="1" parent="JmU3fsiDKjOcnX10Suzt-1">
          <mxGeometry y="20" width="153" height="606" as="geometry" />
        </mxCell>
        <mxCell id="JmU3fsiDKjOcnX10Suzt-8" style="edgeStyle=orthogonalEdgeStyle;rounded=0;orthogonalLoop=1;jettySize=auto;html=1;" edge="1" parent="JmU3fsiDKjOcnX10Suzt-2" source="JmU3fsiDKjOcnX10Suzt-5" target="JmU3fsiDKjOcnX10Suzt-7">
          <mxGeometry relative="1" as="geometry" />
        </mxCell>
        <mxCell id="JmU3fsiDKjOcnX10Suzt-5" value="Mulai" style="rounded=1;whiteSpace=wrap;html=1;arcSize=50;" vertex="1" parent="JmU3fsiDKjOcnX10Suzt-2">
          <mxGeometry x="40" y="118" width="74" height="34" as="geometry" />
        </mxCell>
        <mxCell id="JmU3fsiDKjOcnX10Suzt-31" style="edgeStyle=orthogonalEdgeStyle;rounded=0;orthogonalLoop=1;jettySize=auto;html=1;" edge="1" parent="JmU3fsiDKjOcnX10Suzt-2" source="JmU3fsiDKjOcnX10Suzt-7" target="JmU3fsiDKjOcnX10Suzt-23">
          <mxGeometry relative="1" as="geometry" />
        </mxCell>
        <mxCell id="JmU3fsiDKjOcnX10Suzt-7" value="datang ke kantor" style="rounded=0;whiteSpace=wrap;html=1;" vertex="1" parent="JmU3fsiDKjOcnX10Suzt-2">
          <mxGeometry x="16.499999999999545" y="186" width="120" height="60" as="geometry" />
        </mxCell>
        <mxCell id="JmU3fsiDKjOcnX10Suzt-23" value="temui satpam" style="rounded=0;whiteSpace=wrap;html=1;" vertex="1" parent="JmU3fsiDKjOcnX10Suzt-2">
          <mxGeometry x="16.999999999999545" y="269" width="120" height="60" as="geometry" />
        </mxCell>
        <mxCell id="JmU3fsiDKjOcnX10Suzt-46" value="" style="rounded=0;whiteSpace=wrap;html=1;" vertex="1" parent="JmU3fsiDKjOcnX10Suzt-2">
          <mxGeometry x="16.499999999999545" y="479" width="120" height="60" as="geometry" />
        </mxCell>
        <mxCell id="JmU3fsiDKjOcnX10Suzt-3" value="Resepsionis" style="swimlane;startSize=20;html=1;" vertex="1" parent="JmU3fsiDKjOcnX10Suzt-1">
          <mxGeometry x="153" y="20" width="154" height="606" as="geometry">
            <mxRectangle x="153" y="20" width="32" height="460" as="alternateBounds" />
          </mxGeometry>
        </mxCell>
        <mxCell id="JmU3fsiDKjOcnX10Suzt-28" style="edgeStyle=orthogonalEdgeStyle;rounded=0;orthogonalLoop=1;jettySize=auto;html=1;" edge="1" parent="JmU3fsiDKjOcnX10Suzt-3" source="JmU3fsiDKjOcnX10Suzt-24" target="JmU3fsiDKjOcnX10Suzt-27">
          <mxGeometry relative="1" as="geometry" />
        </mxCell>
        <mxCell id="JmU3fsiDKjOcnX10Suzt-47" style="edgeStyle=orthogonalEdgeStyle;rounded=0;orthogonalLoop=1;jettySize=auto;html=1;" edge="1" parent="JmU3fsiDKjOcnX10Suzt-3" source="JmU3fsiDKjOcnX10Suzt-24" target="JmU3fsiDKjOcnX10Suzt-40">
          <mxGeometry relative="1" as="geometry" />
        </mxCell>
        <mxCell id="JmU3fsiDKjOcnX10Suzt-24" value="janji?" style="rhombus;whiteSpace=wrap;html=1;" vertex="1" parent="JmU3fsiDKjOcnX10Suzt-3">
          <mxGeometry x="50.5" y="271" width="53" height="56" as="geometry" />
        </mxCell>
        <mxCell id="JmU3fsiDKjOcnX10Suzt-27" value="input tamu" style="shape=parallelogram;perimeter=parallelogramPerimeter;whiteSpace=wrap;html=1;fixedSize=1;" vertex="1" parent="JmU3fsiDKjOcnX10Suzt-3">
          <mxGeometry x="16.999999999999545" y="357" width="120" height="60" as="geometry" />
        </mxCell>
        <mxCell id="JmU3fsiDKjOcnX10Suzt-40" value="diterima?" style="rhombus;whiteSpace=wrap;html=1;" vertex="1" parent="JmU3fsiDKjOcnX10Suzt-3">
          <mxGeometry x="43.5" y="186" width="67" height="58" as="geometry" />
        </mxCell>
        <mxCell id="JmU3fsiDKjOcnX10Suzt-30" style="edgeStyle=orthogonalEdgeStyle;rounded=0;orthogonalLoop=1;jettySize=auto;html=1;" edge="1" parent="JmU3fsiDKjOcnX10Suzt-1" source="JmU3fsiDKjOcnX10Suzt-23" target="JmU3fsiDKjOcnX10Suzt-24">
          <mxGeometry relative="1" as="geometry" />
        </mxCell>
        <mxCell id="JmU3fsiDKjOcnX10Suzt-39" style="edgeStyle=orthogonalEdgeStyle;rounded=0;orthogonalLoop=1;jettySize=auto;html=1;" edge="1" parent="JmU3fsiDKjOcnX10Suzt-1" source="JmU3fsiDKjOcnX10Suzt-27" target="JmU3fsiDKjOcnX10Suzt-29">
          <mxGeometry relative="1" as="geometry" />
        </mxCell>
        <mxCell id="JmU3fsiDKjOcnX10Suzt-42" style="edgeStyle=orthogonalEdgeStyle;rounded=0;orthogonalLoop=1;jettySize=auto;html=1;" edge="1" parent="JmU3fsiDKjOcnX10Suzt-1" source="JmU3fsiDKjOcnX10Suzt-40" target="JmU3fsiDKjOcnX10Suzt-33">
          <mxGeometry relative="1" as="geometry" />
        </mxCell>
        <mxCell id="JmU3fsiDKjOcnX10Suzt-48" style="edgeStyle=orthogonalEdgeStyle;rounded=0;orthogonalLoop=1;jettySize=auto;html=1;" edge="1" parent="JmU3fsiDKjOcnX10Suzt-1" source="JmU3fsiDKjOcnX10Suzt-40" target="JmU3fsiDKjOcnX10Suzt-7">
          <mxGeometry relative="1" as="geometry" />
        </mxCell>
        <mxCell id="JmU3fsiDKjOcnX10Suzt-4" value="Karyawan" style="swimlane;startSize=20;html=1;" vertex="1" parent="JmU3fsiDKjOcnX10Suzt-1">
          <mxGeometry x="307" y="20" width="154" height="606" as="geometry" />
        </mxCell>
        <mxCell id="JmU3fsiDKjOcnX10Suzt-38" style="edgeStyle=orthogonalEdgeStyle;rounded=0;orthogonalLoop=1;jettySize=auto;html=1;" edge="1" parent="JmU3fsiDKjOcnX10Suzt-4" source="JmU3fsiDKjOcnX10Suzt-29" target="JmU3fsiDKjOcnX10Suzt-33">
          <mxGeometry relative="1" as="geometry" />
        </mxCell>
        <mxCell id="JmU3fsiDKjOcnX10Suzt-45" style="edgeStyle=orthogonalEdgeStyle;rounded=0;orthogonalLoop=1;jettySize=auto;html=1;" edge="1" parent="JmU3fsiDKjOcnX10Suzt-4" source="JmU3fsiDKjOcnX10Suzt-29">
          <mxGeometry relative="1" as="geometry">
            <mxPoint x="76.99999999999955" y="472" as="targetPoint" />
          </mxGeometry>
        </mxCell>
        <mxCell id="JmU3fsiDKjOcnX10Suzt-29" value="diterima?" style="rhombus;whiteSpace=wrap;html=1;" vertex="1" parent="JmU3fsiDKjOcnX10Suzt-4">
          <mxGeometry x="36.999999999999545" y="347" width="80" height="80" as="geometry" />
        </mxCell>
        <mxCell id="JmU3fsiDKjOcnX10Suzt-36" style="edgeStyle=orthogonalEdgeStyle;rounded=0;orthogonalLoop=1;jettySize=auto;html=1;" edge="1" parent="JmU3fsiDKjOcnX10Suzt-4" source="JmU3fsiDKjOcnX10Suzt-33" target="JmU3fsiDKjOcnX10Suzt-35">
          <mxGeometry relative="1" as="geometry" />
        </mxCell>
        <mxCell id="JmU3fsiDKjOcnX10Suzt-33" value="dipersilahkan&lt;br&gt;bertamu" style="rounded=0;whiteSpace=wrap;html=1;" vertex="1" parent="JmU3fsiDKjOcnX10Suzt-4">
          <mxGeometry x="16.999999999999545" y="186" width="120" height="60" as="geometry" />
        </mxCell>
        <mxCell id="JmU3fsiDKjOcnX10Suzt-35" value="Selesai" style="rounded=1;whiteSpace=wrap;html=1;arcSize=50;" vertex="1" parent="JmU3fsiDKjOcnX10Suzt-4">
          <mxGeometry x="40" y="114" width="74" height="34" as="geometry" />
        </mxCell>
      </root>
    </mxGraphModel>
  </diagram>
</mxfile>
